<svg xmlns="http://www.w3.org/2000/svg" viewBox="0 0 240 100" width="240" height="100">
  <title>MSB · Pipeline Symbol</title>
  <desc>Symbol only — three connected nodes M → S → B. Use in headers, footers, and compact placements.</desc>
  <circle cx="40" cy="50" r="28" fill="#11131A" stroke="#F5F6F8" stroke-width="2.8"></circle>
  <path d="M 28 64 Q 28 36 28 36 Q 28 34 30 34 Q 32 34 33 36 L 40 50 L 47 36 Q 48 34 50 34 Q 52 34 52 36 Q 52 36 52 64" fill="none" stroke="#F5F6F8" stroke-width="3" stroke-linecap="round" stroke-linejoin="round"></path>

  <line x1="72" y1="50" x2="116" y2="50" stroke="#3B82F6" stroke-width="2" opacity="0.9"></line>
  <circle cx="94" cy="50" r="3" fill="#60A5FA"></circle>

  <circle cx="140" cy="50" r="31" fill="#1E3A8A" stroke="#3B82F6" stroke-width="2.8"></circle>
  <path d="M 150 36 Q 146 30 140 30 Q 130 30 130 38 Q 130 46 140 48 Q 150 50 150 58 Q 150 66 140 66 Q 134 66 130 62" fill="none" stroke="#F5F6F8" stroke-width="3" stroke-linecap="round" stroke-linejoin="round"></path>

  <line x1="168" y1="50" x2="212" y2="50" stroke="#3B82F6" stroke-width="2" opacity="0.9"></line>
  <circle cx="190" cy="50" r="3" fill="#60A5FA"></circle>

  <circle cx="240" cy="50" r="28" fill="#11131A" stroke="#F5F6F8" stroke-width="2.8" transform="translate(-32 0)"></circle>
  <path d="M 196 36 L 196 64 L 212 64 Q 222 64 222 56 Q 222 50 215 48 Q 222 46 222 40 Q 222 32 212 32 Z" fill="none" stroke="#F5F6F8" stroke-width="3" stroke-linecap="round" stroke-linejoin="round"></path>
  <line x1="196" y1="50" x2="215" y2="50" stroke="#F5F6F8" stroke-width="3" stroke-linecap="round"></line>
</svg>