<svg xmlns="http://www.w3.org/2000/svg" viewBox="0 0 240 80" width="240" height="80">
  <title>MSB · Pipeline Symbol — Mono White</title>
  <desc>Single-color white variant for dark backgrounds without using the blue accent.</desc>
  <circle cx="40" cy="40" r="22" fill="none" stroke="#F5F6F8" stroke-width="2.5"></circle>
  <path d="M 30 52 Q 30 28 30 28 Q 30 26 32 26 Q 33.5 26 34 28 L 40 40 L 46 28 Q 46.5 26 48 26 Q 50 26 50 28 Q 50 28 50 52" fill="none" stroke="#F5F6F8" stroke-width="2.8" stroke-linecap="round"></path>
  <line x1="62" y1="40" x2="98" y2="40" stroke="#F5F6F8" stroke-width="2" opacity="0.6"></line>
  <circle cx="80" cy="40" r="2.5" fill="#F5F6F8"></circle>
  <circle cx="120" cy="40" r="25" fill="#F5F6F8" stroke="#F5F6F8" stroke-width="2.5"></circle>
  <path d="M 128 30 Q 125 26 120 26 Q 112 26 112 32 Q 112 38 120 39 Q 128 40 128 46 Q 128 52 120 52 Q 115 52 112 48" fill="none" stroke="#11131A" stroke-width="2.8" stroke-linecap="round"></path>
  <line x1="142" y1="40" x2="178" y2="40" stroke="#F5F6F8" stroke-width="2" opacity="0.6"></line>
  <circle cx="160" cy="40" r="2.5" fill="#F5F6F8"></circle>
  <circle cx="200" cy="40" r="22" fill="none" stroke="#F5F6F8" stroke-width="2.5"></circle>
  <path d="M 192 28 L 192 52 L 204 52 Q 211 52 211 46 Q 211 42 207 40 Q 211 39 211 35 Q 211 28 204 28 Z" fill="none" stroke="#F5F6F8" stroke-width="2.8" stroke-linecap="round"></path>
  <line x1="192" y1="40" x2="207" y2="40" stroke="#F5F6F8" stroke-width="2.8" stroke-linecap="round"></line>
</svg>